<svg width="500" height="500" viewBox="0 0 500 500" fill="none" xmlns="http://www.w3.org/2000/svg">
<circle cx="250" cy="250" r="101.351" fill="#B229E2"/>
<path d="M283.784 33.7838C283.784 52.4421 268.658 67.5676 250 67.5676C231.342 67.5676 216.216 52.4421 216.216 33.7838C216.216 15.1255 231.342 0 250 0C268.658 0 283.784 15.1255 283.784 33.7838Z" fill="#30E26C"/>
<path d="M500 250C500 268.658 484.874 283.783 466.216 283.783C447.558 283.783 432.432 268.658 432.432 250C432.432 231.341 447.558 216.216 466.216 216.216C484.874 216.216 500 231.341 500 250Z" fill="#30E26C"/>
<path d="M283.784 466.216C283.784 484.875 268.658 500 250 500C231.342 500 216.216 484.875 216.216 466.216C216.216 447.558 231.342 432.433 250 432.433C268.658 432.433 283.784 447.558 283.784 466.216Z" fill="#30E26C"/>
<path d="M67.5676 250C67.5676 268.658 52.4421 283.783 33.7838 283.783C15.1255 283.783 0 268.658 0 250C0 231.341 15.1255 216.216 33.7838 216.216C52.4421 216.216 67.5676 231.341 67.5676 250Z" fill="#30E26C"/>
<circle cx="84.4594" cy="84.4599" r="50.6757" fill="#6A5DFF"/>
<circle cx="84.4594" cy="402.027" r="50.6757" fill="#6A5DFF"/>
<circle cx="415.541" cy="402.027" r="50.6757" fill="#6A5DFF"/>
<circle cx="415.541" cy="84.4599" r="50.6757" fill="#6A5DFF"/>
<path d="M293.636 249.455C293.636 259.606 291.712 268.242 287.864 275.364C284.045 282.485 278.833 287.924 272.227 291.682C265.652 295.409 258.258 297.273 250.045 297.273C241.773 297.273 234.348 295.394 227.773 291.636C221.197 287.879 216 282.439 212.182 275.318C208.364 268.197 206.455 259.576 206.455 249.455C206.455 239.303 208.364 230.667 212.182 223.545C216 216.424 221.197 211 227.773 207.273C234.348 203.515 241.773 201.636 250.045 201.636C258.258 201.636 265.652 203.515 272.227 207.273C278.833 211 284.045 216.424 287.864 223.545C291.712 230.667 293.636 239.303 293.636 249.455ZM273.682 249.455C273.682 242.879 272.697 237.333 270.727 232.818C268.788 228.303 266.045 224.879 262.5 222.545C258.955 220.212 254.803 219.045 250.045 219.045C245.288 219.045 241.136 220.212 237.591 222.545C234.045 224.879 231.288 228.303 229.318 232.818C227.379 237.333 226.409 242.879 226.409 249.455C226.409 256.03 227.379 261.576 229.318 266.091C231.288 270.606 234.045 274.03 237.591 276.364C241.136 278.697 245.288 279.864 250.045 279.864C254.803 279.864 258.955 278.697 262.5 276.364C266.045 274.03 268.788 270.606 270.727 266.091C272.697 261.576 273.682 256.03 273.682 249.455Z" fill="white"/>
</svg>
